<svg xmlns="http://www.w3.org/2000/svg" viewBox="0 0 392.51 80.99"><defs><style>.cls-1{fill:#f90;}.cls-2{fill:#fff;}</style></defs><g id="Layer_2" data-name="Layer 2"><g id="Layer_1-2" data-name="Layer 1"><path class="cls-1" d="M219,24.48h14.87v8.29h.3A12,12,0,0,1,246,23.66c6.25,0,10.41,3.27,11.41,9h.3c1.38-5.42,6.36-9,12.6-9,8,0,13.5,5.76,13.5,14.13V65.52H268.53V41.73c0-3.9-1.68-5.84-5-5.84-3.09,0-4.91,2.2-4.91,5.8V65.52H244.18V41.77c0-3.91-1.68-5.88-5-5.88-3.08,0-4.94,2.23-4.94,5.8V65.52H219Z"/><path class="cls-1" d="M287.82,53.59c0-7.88,6.06-12.16,17-12.83l9-.55v-2c0-2.75-2.09-4.24-5-4.24-3.12,0-5.13,1.71-5.35,3.79H289.94c.37-8.77,7.81-14.31,19.78-14.31,11.38,0,19,5.69,19,14V65.52H313.85V60h-.3c-2.16,4-7.14,6.1-11.9,6.1-7.47,0-13.83-5.13-13.83-12.53m26-2.57V48.35l-6.47.44c-2.9.23-4.54,1.6-4.54,3.61,0,2.23,1.82,3.53,4.5,3.53,3.38,0,6.51-1.89,6.51-4.91"/><path class="cls-1" d="M334.44,24.48h14.87v8.07h.3c1.56-5.84,4.72-8.66,9.59-8.66a10.26,10.26,0,0,1,3.57.59V37.27a11.38,11.38,0,0,0-4.42-.86c-5.73,0-8.67,2.94-8.67,8.67V65.52H334.44Z"/><path class="cls-1" d="M385.3,15.48v9h7.21v11H385.3V50.69c0,2.56,1.49,3.9,4.61,3.9a13.47,13.47,0,0,0,2.6-.18V65a31.06,31.06,0,0,1-6.28.55c-11.6,0-16.17-3.34-16.17-11.45V35.52h-5.43v-11h5.43v-9Z"/><path class="cls-2" d="M119.3,65.52H104.43V57.46h-.3c-1.64,5.57-5.47,8.88-11.6,8.88-8.81,0-15.28-5.76-15.28-15.54V24.48H92.49v22.9c0,4.35,2.34,6.66,5.91,6.66,3.42,0,5.65-2.64,5.65-6.62V24.48H119.3Z"/><path class="cls-2" d="M124.91,68h14.65c.44,2,2.86,3.38,6.28,3.38,4.54,0,6.73-2.34,6.73-5.8V57.68h-.3C150.94,62,146.14,65,140,65c-9.59,0-16-7.25-16-20.11,0-13.2,6-21,16.25-21,6,0,10.44,3.39,12,8h.3v-7.4h15.24V65.19c0,9.78-9.1,15.8-22.3,15.8-12.46,0-20-5.39-20.6-13M152.65,45c0-5.84-2.46-9.41-6.55-9.41s-6.5,3.57-6.5,9.37,2.38,9,6.5,9,6.55-3,6.55-9"/><path class="cls-2" d="M214.21,52.21c-1.26,8.85-9,14.35-20.26,14.35-13.46,0-21.45-8-21.45-21.34s8.06-21.78,21-21.78c12.71,0,20.93,8.1,20.93,20.67v4.13H187.18v1a6.7,6.7,0,0,0,7,6.92c3.09,0,5.58-1.45,6.47-3.91ZM187.41,40h12.78a6.15,6.15,0,0,0-6.39-6.06A6.34,6.34,0,0,0,187.41,40"/><path class="cls-2" d="M7.57,63.63A80.63,80.63,0,0,0,26.63,68V42.21a83.6,83.6,0,0,1-19.06-4Z"/><path class="cls-2" d="M46.67,68.26a86.73,86.73,0,0,0,19.06-3.63V38.21a83.32,83.32,0,0,1-19.06,4Z"/><path class="cls-2" d="M7.57,0V21.75a84.12,84.12,0,0,0,19.06,4V0H7.57Z"/><path class="cls-2" d="M57.54.17H46.67V25.71a83.86,83.86,0,0,0,19.06-4V.17Z"/><path class="cls-1" d="M36.72,28.79A90,90,0,0,1,7,24.1,5.2,5.2,0,0,0,0,29v0A5.21,5.21,0,0,0,3.1,33.8C11.82,37.66,23.67,40,36.72,40,50,40,62,37.59,70.76,33.61a5.21,5.21,0,0,0-4-9.63,89.58,89.58,0,0,1-30.07,4.81"/></g></g></svg>